<mxfile host="app.diagrams.net" agent="Mozilla/5.0 (Windows NT 10.0; Win64; x64; rv:128.0) Gecko/20100101 Firefox/128.0" version="28.0.4">
  <diagram name="Page-1" id="cbCykp6xEa2l4NgkujF_">
    <mxGraphModel dx="1042" dy="563" grid="1" gridSize="10" guides="1" tooltips="1" connect="1" arrows="1" fold="1" page="1" pageScale="1" pageWidth="850" pageHeight="1100" math="0" shadow="0">
      <root>
        <mxCell id="0" />
        <mxCell id="1" parent="0" />
        <mxCell id="j26h5UGLCcbVDBcoj2SG-1" value="Adriuno Uno(Sensors: Soil, Temperature, Water)" style="rounded=0;whiteSpace=wrap;html=1;" vertex="1" parent="1">
          <mxGeometry x="100" y="110" width="190" height="80" as="geometry" />
        </mxCell>
        <mxCell id="j26h5UGLCcbVDBcoj2SG-2" value="ESP866" style="rounded=0;whiteSpace=wrap;html=1;" vertex="1" parent="1">
          <mxGeometry x="380" y="110" width="185" height="70" as="geometry" />
        </mxCell>
        <mxCell id="j26h5UGLCcbVDBcoj2SG-3" value="" style="endArrow=classic;html=1;rounded=0;entryX=0;entryY=0.5;entryDx=0;entryDy=0;exitX=1;exitY=0.5;exitDx=0;exitDy=0;" edge="1" parent="1" source="j26h5UGLCcbVDBcoj2SG-1" target="j26h5UGLCcbVDBcoj2SG-2">
          <mxGeometry width="50" height="50" relative="1" as="geometry">
            <mxPoint x="290" y="140" as="sourcePoint" />
            <mxPoint x="340" y="110" as="targetPoint" />
          </mxGeometry>
        </mxCell>
        <mxCell id="j26h5UGLCcbVDBcoj2SG-4" value="Firebase Real Time Database" style="rounded=0;whiteSpace=wrap;html=1;" vertex="1" parent="1">
          <mxGeometry x="340" y="280" width="220" height="60" as="geometry" />
        </mxCell>
        <mxCell id="j26h5UGLCcbVDBcoj2SG-5" value="" style="endArrow=classic;html=1;rounded=0;entryX=0.5;entryY=0;entryDx=0;entryDy=0;" edge="1" parent="1" target="j26h5UGLCcbVDBcoj2SG-4">
          <mxGeometry width="50" height="50" relative="1" as="geometry">
            <mxPoint x="450" y="180" as="sourcePoint" />
            <mxPoint x="500" y="130" as="targetPoint" />
          </mxGeometry>
        </mxCell>
        <mxCell id="j26h5UGLCcbVDBcoj2SG-6" value="Adriuno IDE" style="edgeLabel;html=1;align=center;verticalAlign=middle;resizable=0;points=[];" vertex="1" connectable="0" parent="j26h5UGLCcbVDBcoj2SG-5">
          <mxGeometry x="-0.02" y="3" relative="1" as="geometry">
            <mxPoint as="offset" />
          </mxGeometry>
        </mxCell>
        <mxCell id="j26h5UGLCcbVDBcoj2SG-7" value="Python AI Agent" style="rounded=0;whiteSpace=wrap;html=1;" vertex="1" parent="1">
          <mxGeometry x="340" y="380" width="250" height="60" as="geometry" />
        </mxCell>
        <mxCell id="j26h5UGLCcbVDBcoj2SG-8" value="" style="endArrow=classic;html=1;rounded=0;" edge="1" parent="1">
          <mxGeometry width="50" height="50" relative="1" as="geometry">
            <mxPoint x="440" y="340" as="sourcePoint" />
            <mxPoint x="440" y="380" as="targetPoint" />
          </mxGeometry>
        </mxCell>
        <mxCell id="j26h5UGLCcbVDBcoj2SG-9" value="" style="endArrow=classic;html=1;rounded=0;" edge="1" parent="1" source="j26h5UGLCcbVDBcoj2SG-7" target="j26h5UGLCcbVDBcoj2SG-10">
          <mxGeometry width="50" height="50" relative="1" as="geometry">
            <mxPoint x="440" y="450" as="sourcePoint" />
            <mxPoint x="430" y="520" as="targetPoint" />
          </mxGeometry>
        </mxCell>
        <mxCell id="j26h5UGLCcbVDBcoj2SG-10" value="Web/Mobile" style="rounded=0;whiteSpace=wrap;html=1;" vertex="1" parent="1">
          <mxGeometry x="340" y="510" width="250" height="60" as="geometry" />
        </mxCell>
      </root>
    </mxGraphModel>
  </diagram>
</mxfile>
